<?xml version="1.0" standalone="no"?>
<!DOCTYPE svg PUBLIC "-//W3C//DTD SVG 20010904//EN"
 "http://www.w3.org/TR/2001/REC-SVG-20010904/DTD/svg10.dtd">
<svg version="1.0" xmlns="http://www.w3.org/2000/svg"
 width="512.000000pt" height="512.000000pt" viewBox="0 0 512.000000 512.000000"
 preserveAspectRatio="xMidYMid meet">
<metadata>
Created by potrace 1.14, written by Peter Selinger 2001-2017
</metadata>
<g transform="translate(0.000000,512.000000) scale(0.100000,-0.100000)"
fill="#000000" stroke="none">
<path d="M0 2560 l0 -2560 2560 0 2560 0 0 2560 0 2560 -2560 0 -2560 0 0
-2560z m2503 1789 c12 -6 228 -216 480 -468 l457 -456 0 94 c0 136 -8 131 212
131 165 0 179 -1 198 -20 19 -19 20 -33 20 -327 l0 -307 225 -226 c198 -200
225 -231 225 -258 0 -19 -8 -40 -20 -52 -19 -19 -33 -20 -220 -20 l-200 0 0
-645 c0 -632 0 -645 -20 -665 -20 -20 -33 -20 -667 -20 l-648 0 120 120 120
120 137 0 137 0 20 -29 c43 -59 136 -65 190 -11 53 53 53 127 0 180 -54 54
-147 48 -191 -11 l-22 -29 -151 0 -151 0 -112 -112 -112 -113 0 145 0 145 146
148 146 147 239 0 c230 0 239 -1 249 -21 17 -30 70 -59 110 -59 81 0 146 88
120 164 -18 57 -61 86 -125 86 -50 0 -57 -3 -93 -40 l-39 -40 -181 2 -182 3
130 133 130 132 0 132 0 131 90 88 c87 84 91 87 128 82 104 -14 177 104 122
195 -43 70 -136 78 -197 17 -29 -29 -33 -39 -33 -87 0 -52 -2 -56 -55 -108
l-55 -54 0 201 c0 192 1 203 20 213 28 15 50 63 50 110 0 117 -173 163 -233
61 -32 -54 -14 -146 33 -171 19 -10 20 -21 20 -213 l-1 -202 -53 57 c-52 55
-54 58 -49 102 6 53 -11 86 -60 116 -86 53 -188 -4 -189 -105 -2 -79 51 -129
133 -127 48 1 49 1 139 -90 l90 -91 0 -111 0 -111 -120 -120 -120 -120 0 92
c0 90 0 91 34 125 19 19 38 48 42 63 11 43 -15 105 -55 132 -129 87 -270 -89
-156 -195 l35 -32 0 -143 0 -142 -105 -105 -105 -105 0 670 0 670 90 90 c88
88 90 89 134 86 81 -5 139 47 139 124 0 74 -54 125 -131 125 -70 0 -129 -69
-119 -140 5 -36 1 -41 -82 -124 l-86 -86 -83 84 c-79 80 -83 85 -77 118 15 78
-48 148 -134 148 -36 0 -49 -6 -76 -33 -60 -60 -59 -134 1 -187 32 -27 43 -31
85 -29 l50 3 94 -94 95 -95 0 -470 0 -470 -160 160 -160 160 0 136 c0 133 1
136 23 146 26 12 57 68 57 102 0 40 -28 90 -62 111 -65 39 -144 17 -178 -51
-30 -57 -21 -102 31 -151 l40 -38 -3 -80 -3 -80 -133 127 -132 128 0 125 0
125 35 28 c50 40 63 91 37 149 -14 32 -29 49 -57 62 -134 64 -248 -108 -139
-210 l34 -33 0 -148 0 -148 137 -137 138 -138 -78 0 c-76 0 -79 1 -111 34 -57
62 -148 54 -199 -16 -26 -35 -26 -101 0 -136 53 -72 140 -79 199 -16 l33 34
133 0 133 0 192 -192 193 -193 0 -340 0 -340 -100 100 -100 100 0 131 0 132
40 40 c34 34 40 46 40 81 0 80 -49 131 -125 131 -75 0 -125 -51 -125 -127 0
-44 30 -98 59 -108 19 -6 21 -14 21 -91 0 -46 -3 -84 -8 -84 -4 0 -74 66 -155
148 l-147 147 0 49 c0 55 -21 96 -60 120 -58 33 -145 11 -176 -46 -8 -13 -13
-44 -14 -70 0 -39 5 -52 34 -82 33 -36 48 -40 121 -37 26 2 50 -18 185 -154
l155 -155 -83 0 -83 0 -37 39 c-88 93 -222 40 -222 -88 0 -37 6 -49 39 -82 34
-34 44 -39 85 -39 40 0 52 5 90 40 l43 40 129 0 129 0 125 -125 125 -125 -653
0 c-639 0 -652 0 -672 20 -20 20 -20 33 -20 665 l0 645 -200 0 c-187 0 -201 1
-220 20 -12 12 -20 33 -20 52 0 30 78 111 888 921 488 489 901 898 917 908 35
22 39 23 68 8z m-281 -1016 c36 -32 17 -83 -32 -83 -33 0 -50 17 -50 52 0 44
48 62 82 31z m583 -7 c12 -18 13 -30 6 -50 -9 -21 -17 -26 -46 -26 -28 0 -37
5 -44 23 -23 61 49 107 84 53z m-1068 -198 c20 -27 21 -48 4 -70 -16 -19 -23
-21 -46 -13 -39 14 -52 37 -37 69 9 19 19 26 41 26 16 0 33 -6 38 -12z m1421
-4 c27 -19 28 -55 2 -79 -17 -15 -24 -16 -45 -7 -30 14 -39 33 -31 66 5 21 14
28 46 35 3 0 16 -6 28 -15z m-1066 -341 c22 -20 23 -41 1 -65 -32 -36 -83 -17
-83 32 0 48 45 67 82 33z m779 -3 c29 -16 25 -65 -6 -86 -23 -15 -27 -15 -50
0 -32 21 -33 59 -3 80 26 19 33 19 59 6z m583 -9 c23 -26 17 -63 -14 -78 -33
-16 -64 3 -68 43 -6 49 49 72 82 35z m-1766 -393 c7 -7 12 -24 12 -38 0 -48
-45 -67 -82 -33 -36 32 -17 83 32 83 14 0 31 -5 38 -12z m1116 -64 c47 -18 38
-94 -10 -94 -31 0 -64 25 -64 48 0 19 29 52 46 52 7 0 20 -3 28 -6z m-1064
-404 c11 -11 20 -27 20 -35 0 -8 -9 -24 -20 -35 -11 -11 -27 -20 -35 -20 -8 0
-24 9 -35 20 -11 11 -20 27 -20 35 0 8 9 24 20 35 11 11 27 20 35 20 8 0 24
-9 35 -20z m1718 -12 c18 -18 14 -53 -8 -73 -44 -40 -107 25 -69 71 14 17 60
19 77 2z m-1240 -50 c7 -7 12 -24 12 -38 0 -48 -45 -67 -82 -33 -20 18 -23 36
-8 64 12 22 59 26 78 7z m993 -398 c29 -16 25 -65 -6 -86 -23 -15 -27 -15 -50
0 -30 20 -32 49 -5 76 23 23 33 24 61 10z m-1403 -12 c17 -17 15 -63 -3 -78
-38 -32 -100 24 -76 69 13 23 59 29 79 9z"/>
</g>
</svg>
