<svg xmlns="http://www.w3.org/2000/svg" viewBox="0 0 990.96 215.56"><g fill="currentColor"><path d="M20.79 183C-1 176.77-4.7 163.91 5.26 156.5c9.21-6.87 24.87-12 24.87-12l64.67-23.1v26.32l-46.54 16.73c-8.23 3-9.49 7.16-2.8 9.35s18.78 1.57 27-1.39l22.32-8.14v23.55c-1.41.26-3 .51-4.45.75A145.79 145.79 0 0120.79 183zm136.44 2.74l72.57-25.9c8.24-3 9.5-7.14 2.81-9.33s-18.78-1.57-27 1.4l-48.36 17.06v-27.19l2.8-.95a165.71 165.71 0 0133.61-7.13c19.65-2.17 43.71.3 62.59 7.46 21.29 6.74 23.69 16.67 18.28 23.51s-18.67 11.71-18.67 11.71l-98.61 35.49zm8.49-168.57c38.21 13.19 51.16 29.61 51.16 66.61 0 36.05-22.14 49.72-50.26 36.07V52.62c0-7.88-1.44-15.14-8.8-17.2-5.64-1.82-9.14 3.45-9.14 11.33V215l-45.12-14.4V0c19.19 3.58 47.14 12 62.16 17.13zm97 184.15a1.64 1.64 0 01-.54 1.43 2.84 2.84 0 01-1.65.42h-3.47v-3.59h3.68a2.79 2.79 0 011.2.22 1.53 1.53 0 01.78 1.52zm2.49 8.18a.79.79 0 01-.37-.56 4.21 4.21 0 01-.1-1l-.07-1.63a2.93 2.93 0 00-.44-1.69 2.73 2.73 0 00-.75-.62 3.37 3.37 0 00.95-.93 3.6 3.6 0 00.49-1.94 3.16 3.16 0 00-1.85-3.12 5.71 5.71 0 00-2.37-.43h-5.81v12.7h2.17v-5.21h3.42a3.3 3.3 0 011.33.2 1.42 1.42 0 01.71 1.35l.1 2a6.68 6.68 0 00.09 1 1.8 1.8 0 00.16.48l.08.15h2.42v-.74zm-14.89-5.3a9.51 9.51 0 012.74-6.71 9.23 9.23 0 0113.22 0 9.52 9.52 0 01-6.61 16.19 9.23 9.23 0 01-6.61-2.78 9.51 9.51 0 01-2.74-6.7zm9.35 11.4a11.05 11.05 0 007.94-3.35 11.52 11.52 0 000-16.12 11.08 11.08 0 00-7.94-3.34 11.44 11.44 0 00-7.94 19.46 11.05 11.05 0 007.94 3.35z" fill-rule="evenodd"/><path d="M970.58 172.41h-1.92v-13.15h-4.4v-1.84H975v1.84h-4.4zm13.31-3.48l4.11-11.51h3v15h-2v-12.54l-4.55 12.53h-1.22l-4.53-12.53v12.53h-1.9v-15h3zM945 42.94H761v49.88s-.56 19.26 23.26 19.26h112.47a31.57 31.57 0 0112.83 2.61c6.28 2.8 13.34 8.5 13.34 20 0 10.32-5 16.18-9.95 19.46a25 25 0 01-13.76 4H761v14h154.09s35-1.42 35-37.39c0-18.29-10.68-27.35-20.29-31.79a47 47 0 00-19.8-4.29H798.53a11.24 11.24 0 01-5.34-1.27c-2.38-1.29-5-3.85-5-8.89V56.75H945zM529.41 158.1v14h78.1a38.71 38.71 0 0025.5-9.23 32.27 32.27 0 0011.38-25.36V78a21.5 21.5 0 018-17A20 20 0 01665 56.75h68.09V42.94H652s-35 .56-35 37.58v55.57a24.12 24.12 0 01-3.54 12.91 18.78 18.78 0 01-16.7 9.13zM349.09 42.94v13.81h139.2a26.28 26.28 0 0111.22 2.41c5.52 2.59 11.72 7.92 11.72 18.73 0 10.5-6.2 15.75-11.72 18.35a26.78 26.78 0 01-11.4 2.44H384.87a39.28 39.28 0 00-17.64 4c-8.59 4.31-18.14 14.46-18.14 31.2v38h26.79v-37.83a19.66 19.66 0 011.31-7.2c2.21-5.67 7.8-14.77 20.87-14.77h104.1a37.78 37.78 0 0010.36-1.39c9.56-2.72 25.5-10.58 25.5-32.8 0-34.53-34.37-34.95-34.37-34.95z"/></g></svg>