<?xml version="1.0" encoding="utf-8"?>
<svg viewBox="-984.887 -207.079 2880.083 818.7" xmlns="http://www.w3.org/2000/svg">
  <path fill="white" d="M 308.996 -205.079 C 309.296 -203.679 309.096 -203.279 308.396 -203.779 C 307.696 -204.179 307.396 -203.979 307.696 -203.179 C 308.296 -201.579 298.696 -172.179 297.896 -172.979 C 297.596 -173.279 297.596 -172.579 297.896 -171.279 C 298.396 -169.579 298.196 -169.279 297.196 -169.879 C 296.396 -170.379 296.096 -170.279 296.596 -169.579 C 297.496 -168.179 296.196 -163.279 295.196 -163.879 C 294.696 -164.179 294.596 -163.379 294.996 -162.179 C 295.296 -160.779 295.096 -160.279 294.396 -160.779 C 293.696 -161.179 293.396 -160.979 293.696 -160.179 C 294.396 -158.279 283.696 -126.179 282.696 -127.079 C 282.296 -127.579 282.196 -127.379 282.596 -126.679 C 283.496 -125.079 282.196 -120.279 281.096 -120.979 C 280.596 -121.279 280.396 -120.879 280.696 -120.179 C 281.396 -118.379 271.696 -89.279 270.696 -90.179 C 270.196 -90.579 270.196 -90.279 270.596 -89.679 C 271.396 -88.179 269.196 -80.279 268.096 -80.879 C 267.696 -81.179 267.596 -80.379 267.996 -79.179 C 268.396 -77.579 268.196 -77.279 267.196 -77.879 C 266.296 -78.379 266.096 -78.279 266.596 -77.479 C 267.396 -76.279 261.396 -57.079 260.096 -56.579 C 259.696 -56.379 259.596 -55.579 259.896 -54.779 C 260.196 -53.979 259.996 -53.379 259.396 -53.379 C 258.896 -53.379 258.396 -52.779 258.496 -52.179 C 258.596 -48.579 258.096 -46.279 257.296 -46.779 C 256.796 -47.179 256.596 -46.379 256.996 -45.179 C 257.396 -43.579 257.196 -43.279 256.196 -43.879 C 255.396 -44.379 255.096 -44.279 255.596 -43.579 C 256.596 -41.979 255.196 -37.279 253.896 -38.079 C 253.296 -38.379 253.196 -38.179 253.596 -37.479 C 254.396 -36.279 245.496 -8.079 244.196 -7.579 C 243.696 -7.379 243.696 -6.379 243.996 -5.179 C 244.296 -3.979 244.096 -3.279 243.596 -3.579 C 243.096 -3.979 242.596 -2.779 242.596 -1.079 C 242.496 0.621 241.996 2.221 241.396 2.421 C 240.796 2.621 240.596 3.421 240.896 4.321 C 241.396 5.521 241.196 5.721 240.196 5.121 C 239.196 4.521 238.996 4.821 239.396 6.321 C 239.696 7.421 239.096 10.021 238.096 12.121 C 237.096 14.221 236.496 16.221 236.696 16.621 C 236.996 17.121 236.796 17.621 236.396 17.821 C 235.696 18.021 222.496 57.521 211.096 93.321 L 207.796 103.621 L 42.496 103.621 C -48.404 103.621 -122.804 103.921 -122.704 104.321 C -122.704 104.921 115.796 280.421 139.696 297.421 L 142.996 299.821 L 159.396 290.021 C 211.996 258.621 273.596 229.821 331.896 209.421 L 381.758 195.275 L 231.987 29.868 L 217.996 74.821 L 221.196 65.021 C 222.996 59.521 225.096 53.621 225.996 51.821 L 227.496 48.421 L 301.196 122.121 L 374.896 195.821 L 379.796 194.321 C 382.496 193.521 388.496 191.821 393.196 190.621 C 397.896 189.521 402.396 188.221 403.196 187.921 C 403.996 187.621 405.396 187.221 406.196 187.121 C 409.296 186.521 412.196 185.721 413.096 185.221 C 413.496 184.921 415.396 184.421 417.296 184.221 C 419.196 183.921 422.396 183.221 424.496 182.721 C 427.696 181.921 428.096 182.021 427.096 183.221 C 426.496 184.021 423.496 186.021 420.596 187.721 C 417.596 189.421 415.196 191.221 415.196 191.721 C 415.196 192.221 414.596 192.621 413.996 192.621 C 413.296 192.721 407.496 196.721 401.196 201.621 C 394.896 206.621 384.396 214.721 377.996 219.721 C 371.496 224.821 366.496 229.321 366.896 229.921 C 367.196 230.421 366.996 230.621 366.396 230.221 C 365.296 229.521 343.296 247.221 313.696 272.621 C 238.196 337.221 166.296 408.621 107.096 477.621 C 94.696 492.121 75.496 515.821 72.796 519.721 C 71.496 521.821 43.196 608.921 43.196 611.021 C 43.196 611.321 43.996 611.621 45.096 611.621 C 46.096 611.621 105.496 569.121 177.096 517.121 C 248.596 465.121 307.996 422.121 308.996 421.521 C 310.696 420.521 327.496 432.421 442.596 516.021 C 517.196 570.121 575.096 611.621 576.296 611.621 C 577.596 611.621 578.196 611.121 577.996 610.321 C 572.396 595.321 477.296 299.121 477.896 298.621 C 479.596 297.121 495.796 285.021 499.196 282.721 C 501.096 281.421 503.996 279.021 505.596 277.521 C 507.296 275.921 509.096 274.621 509.796 274.621 C 510.396 274.621 511.296 273.921 511.596 273.021 C 511.996 272.121 512.496 271.621 512.796 271.821 C 513.096 272.121 514.696 271.121 516.496 269.521 C 518.196 267.921 519.696 266.821 519.896 267.021 C 520.096 267.221 521.696 266.021 523.296 264.521 C 524.996 262.921 526.896 261.921 527.496 262.321 C 527.996 262.621 528.196 262.521 527.896 261.921 C 527.296 260.921 533.096 256.921 534.496 257.421 C 534.996 257.521 535.096 257.221 534.796 256.721 C 534.296 255.921 535.096 255.321 537.396 254.721 C 537.796 254.621 539.496 253.221 541.296 251.621 C 542.996 249.921 544.896 248.921 545.496 249.321 C 545.996 249.621 546.196 249.421 545.896 248.921 C 545.196 247.821 547.896 246.121 549.496 246.521 C 549.996 246.621 550.096 246.321 549.796 245.821 C 549.296 244.921 555.196 241.021 556.496 241.421 C 556.996 241.521 557.096 241.221 556.796 240.721 C 556.296 239.921 557.096 239.321 559.396 238.721 C 559.796 238.621 561.496 237.221 563.296 235.621 C 564.996 233.921 566.896 232.921 567.496 233.321 C 567.996 233.621 568.196 233.421 567.896 232.921 C 567.196 231.821 569.896 230.121 571.496 230.521 C 571.996 230.621 572.096 230.321 571.796 229.821 C 571.296 228.921 577.196 225.021 578.496 225.421 C 578.996 225.521 579.096 225.221 578.796 224.721 C 578.196 223.821 580.996 222.121 582.496 222.521 C 582.996 222.621 583.096 222.321 582.796 221.821 C 582.296 220.921 588.196 217.021 589.496 217.421 C 589.996 217.521 590.096 217.221 589.796 216.721 C 589.196 215.721 591.996 214.121 593.696 214.521 C 594.296 214.721 594.396 214.421 593.996 214.021 C 593.096 213.121 603.396 205.621 604.596 206.421 C 605.096 206.721 605.196 206.521 604.896 205.921 C 604.296 204.921 610.096 200.921 611.496 201.421 C 611.996 201.521 612.096 201.221 611.796 200.721 C 611.196 199.821 613.996 198.121 615.496 198.521 C 615.996 198.621 616.096 198.321 615.796 197.821 C 615.196 196.821 621.196 193.021 622.696 193.521 C 623.196 193.621 623.396 193.421 622.996 193.021 C 622.096 192.221 629.296 186.621 630.396 187.221 C 630.896 187.521 631.196 187.321 631.196 186.721 C 631.196 185.521 640.096 179.021 641.296 179.321 C 641.796 179.521 642.196 179.221 642.196 178.721 C 642.196 177.521 651.196 171.021 652.296 171.321 C 652.796 171.521 653.196 171.221 653.196 170.721 C 653.196 169.721 662.096 162.921 662.796 163.321 C 662.896 163.421 664.496 162.221 666.296 160.621 C 667.996 158.921 669.896 157.921 670.496 158.321 C 670.996 158.621 671.196 158.421 670.896 157.921 C 670.396 157.121 672.496 155.421 673.896 155.521 C 673.996 155.521 675.496 154.221 677.296 152.621 C 678.996 150.921 680.896 149.921 681.496 150.321 C 681.996 150.621 682.196 150.421 681.896 149.921 C 681.396 149.121 683.496 147.421 684.896 147.521 C 684.996 147.521 686.496 146.221 688.296 144.621 C 689.996 142.921 691.896 141.921 692.596 142.321 C 693.196 142.621 693.396 142.521 692.896 142.121 C 691.996 141.121 702.296 133.621 703.596 134.321 C 704.096 134.721 704.196 134.421 703.896 133.921 C 703.196 132.821 705.896 131.121 707.496 131.521 C 707.996 131.621 708.096 131.321 707.796 130.821 C 707.296 129.921 713.196 126.021 714.496 126.421 C 714.996 126.521 715.096 126.221 714.796 125.721 C 714.196 124.821 716.996 123.121 718.496 123.521 C 718.996 123.621 719.096 123.321 718.796 122.821 C 718.296 121.921 724.196 118.021 725.496 118.421 C 725.996 118.521 726.096 118.221 725.796 117.721 C 725.196 116.821 727.996 115.121 729.496 115.521 C 729.996 115.621 730.096 115.321 729.796 114.821 C 729.296 113.921 735.196 110.021 736.496 110.421 C 736.996 110.521 737.096 110.221 736.796 109.721 C 736.196 108.821 738.996 107.121 740.496 107.521 C 740.996 107.621 741.096 107.221 740.696 106.621 C 740.396 106.121 740.696 105.521 741.396 105.421 C 742.096 105.221 668.496 104.921 577.696 104.621 C 421.696 104.121 412.696 104.021 412.796 102.421 C 412.896 101.421 412.596 100.821 412.196 101.121 C 411.096 101.821 409.996 96.821 410.796 95.421 C 411.196 94.821 411.096 94.621 410.496 94.921 C 409.296 95.621 407.796 91.121 408.696 89.621 C 408.996 89.221 408.796 88.621 408.196 88.421 C 407.696 88.321 407.096 87.021 406.996 85.621 C 406.796 84.221 406.396 82.921 406.096 82.621 C 404.796 81.521 398.096 59.621 398.796 58.521 C 399.296 57.721 399.096 57.621 398.196 58.121 C 397.196 58.721 396.996 58.421 397.396 56.821 C 397.796 55.621 397.696 54.821 397.196 55.121 C 396.296 55.721 394.896 50.921 395.696 49.621 C 395.996 49.221 395.796 48.621 395.396 48.421 C 393.996 47.921 384.996 19.821 385.796 18.521 C 386.196 17.821 386.096 17.621 385.496 17.921 C 384.196 18.721 382.796 14.021 383.796 12.421 C 384.196 11.821 384.096 11.621 383.496 11.921 C 382.296 12.621 380.796 8.121 381.696 6.621 C 381.996 6.221 381.796 5.621 381.396 5.421 C 379.996 4.921 370.996 -23.179 371.796 -24.479 C 372.196 -25.179 372.096 -25.379 371.496 -25.079 C 370.196 -24.279 368.796 -28.979 369.796 -30.679 C 370.196 -31.379 370.096 -31.579 369.696 -31.079 C 368.696 -30.179 357.996 -62.279 358.696 -64.179 C 358.996 -64.979 358.696 -65.179 357.996 -64.779 C 357.296 -64.279 357.096 -64.779 357.396 -66.179 C 357.796 -67.579 357.596 -68.179 356.896 -67.679 C 356.296 -67.279 356.096 -67.879 356.396 -69.179 C 356.796 -70.379 356.696 -71.179 356.196 -70.879 C 355.296 -70.279 353.896 -75.079 354.696 -76.379 C 354.996 -76.779 354.796 -77.379 354.396 -77.579 C 352.996 -78.079 343.996 -106.179 344.796 -107.479 C 345.196 -108.179 345.096 -108.379 344.496 -108.079 C 343.196 -107.279 341.796 -111.979 342.796 -113.579 C 343.196 -114.179 343.096 -114.379 342.496 -114.079 C 341.296 -113.379 339.796 -117.879 340.696 -119.379 C 340.996 -119.779 340.796 -120.379 340.396 -120.579 C 338.996 -121.079 329.996 -149.179 330.796 -150.479 C 331.196 -151.179 331.096 -151.379 330.496 -151.079 C 329.196 -150.279 327.796 -154.979 328.796 -156.679 C 329.196 -157.379 329.096 -157.579 328.696 -157.079 C 327.696 -156.179 316.996 -188.279 317.696 -190.179 C 317.996 -190.879 317.796 -191.279 317.296 -190.979 C 316.196 -190.279 314.896 -195.079 315.796 -196.579 C 316.196 -197.179 316.096 -197.379 315.496 -197.079 C 314.296 -196.279 312.796 -200.879 313.696 -202.379 C 314.096 -202.979 313.896 -203.379 313.396 -203.379 C 312.896 -203.379 312.196 -204.179 311.996 -205.179 C 311.696 -206.179 310.796 -207.079 309.996 -207.079 C 308.996 -207.079 308.596 -206.379 308.996 -205.079 Z M 433.496 254.421 C 464.496 285.421 476.296 297.821 476.096 299.221 C 475.896 300.221 476.096 301.721 476.596 302.421 C 477.696 304.221 491.396 346.821 490.896 347.221 C 490.796 347.421 478.926 286.27 445.826 253.17 L 396.635 207.065 L 378.096 220.821 C 382.496 217.421 386.496 214.621 386.996 214.621 C 387.596 214.621 388.196 213.921 388.596 213.121 C 388.896 212.321 389.496 211.621 389.896 211.621 C 390.396 211.621 409.996 230.921 433.496 254.421 Z M -781.304 -109.779 C -817.404 -104.579 -836.404 -99.079 -860.604 -87.079 C -937.904 -48.479 -975.404 31.721 -955.304 115.421 C -946.304 152.621 -923.604 185.421 -888.404 211.821 C -869.704 225.821 -858.704 231.921 -791.804 265.621 C -758.004 282.621 -725.604 299.521 -719.804 303.121 C -689.104 322.521 -676.804 340.521 -676.804 366.021 C -676.904 405.521 -708.604 434.621 -751.604 434.621 C -786.104 434.621 -816.804 418.621 -837.004 390.121 C -842.304 382.721 -852.004 363.921 -854.004 357.321 C -854.604 355.221 -855.804 353.221 -856.504 352.921 C -857.604 352.521 -983.204 388.121 -984.704 389.321 C -986.304 390.521 -977.104 416.221 -969.304 432.421 C -935.604 502.521 -873.904 545.721 -790.304 557.821 C -777.904 559.621 -727.304 559.621 -715.304 557.821 C -644.504 547.221 -590.504 514.321 -558.504 462.621 C -530.604 417.321 -524.104 355.521 -541.904 302.221 C -555.004 262.921 -581.704 230.421 -623.304 203.421 C -633.604 196.721 -651.004 186.921 -660.804 182.421 C -663.804 181.021 -688.304 169.621 -715.304 157.221 C -767.304 133.121 -775.204 129.121 -785.904 122.021 C -799.204 113.021 -810.704 99.021 -814.404 87.121 C -816.804 79.321 -817.304 65.321 -815.404 57.221 C -811.704 41.721 -800.804 28.321 -785.704 20.821 C -773.804 14.921 -765.904 13.221 -750.804 13.321 C -732.304 13.421 -718.504 17.621 -704.104 27.421 C -691.104 36.321 -676.904 54.421 -668.304 72.921 C -666.104 77.721 -663.704 81.521 -663.104 81.621 C -662.404 81.621 -635.804 70.121 -604.104 56.021 C -572.304 41.921 -544.904 29.721 -543.104 29.021 L -539.904 27.621 L -542.504 21.421 C -550.304 2.021 -564.704 -22.279 -577.204 -37.279 C -609.904 -76.379 -651.704 -98.679 -709.804 -107.879 C -717.404 -109.079 -728.304 -109.679 -749.304 -109.879 C -765.204 -110.079 -779.604 -109.979 -781.304 -109.779 Z"/>
  <path fill="#fff" d="M -495.804 -37.879 L -495.804 26.621 L -352.804 26.621 L -352.804 548.621 L -207.804 548.621 L -207.804 26.621 L -64.804 26.621 L -64.804 -102.379 L -495.804 -102.379 L -495.804 -37.879 Z M 780.196 223.621 L 780.196 549.621 L 923.196 549.621 L 923.396 421.021 L 923.696 292.321 L 1009.696 420.521 L 1095.596 548.621 L 1261.396 548.621 L 1258.996 545.321 C 1246.096 528.121 1075.796 289.121 1076.096 288.721 C 1076.296 288.321 1079.496 287.621 1083.096 287.021 C 1121.996 280.321 1158.996 260.321 1187.296 230.921 C 1225.496 191.021 1243.596 140.421 1240.196 83.121 C 1238.496 54.821 1234.096 34.521 1224.596 11.921 C 1201.296 -43.879 1150.896 -81.779 1080.796 -95.879 C 1050.896 -101.879 1056.396 -101.679 912.496 -102.079 L 780.196 -102.479 L 780.196 223.621 Z M 1039.496 25.821 C 1062.996 32.221 1078.896 44.221 1087.896 62.121 C 1096.596 79.321 1098.196 102.721 1092.096 124.721 C 1085.596 148.221 1068.796 166.821 1045.996 175.921 C 1031.496 181.721 1029.996 181.921 974.496 182.321 L 923.196 182.721 L 923.196 22.521 L 976.496 22.821 L 1029.696 23.221 L 1039.496 25.821 Z M 1545.196 67.121 L 1545.196 167.621 L 1335.196 167.621 L 1335.196 302.621 L 1545.196 302.621 L 1545.196 502.621 L 1687.196 502.621 L 1687.196 302.621 L 1895.196 302.621 L 1895.196 167.621 L 1687.196 167.621 L 1687.196 -33.379 L 1545.196 -33.379 L 1545.196 67.121 Z M 367.196 197.121 C 365.296 197.821 364.396 198.421 365.196 198.421 C 365.996 198.421 368.296 197.821 370.196 197.121 C 372.096 196.421 372.996 195.821 372.196 195.821 C 371.396 195.821 369.096 196.421 367.196 197.121 Z M 357.996 200.321 C 358.696 200.621 359.596 200.521 359.896 200.221 C 360.296 199.921 359.696 199.621 358.596 199.721 C 357.496 199.721 357.196 200.021 357.996 200.321 Z M 349.696 202.621 C 348.396 203.221 348.196 203.521 349.196 203.521 C 349.996 203.521 351.396 203.121 352.196 202.621 C 353.996 201.421 352.396 201.421 349.696 202.621 Z"/>
</svg>