<svg xmlns="http://www.w3.org/2000/svg" version="1.0" viewBox="0 0 981 211"><rect width="100%" height="100%" fill="none"/><g class="currentLayer" fill="currentColor"><g><path d="M48.439 43.3c-2.725.52-6.878 2.596-9.084 4.542-4.542 3.937-6.792 9.517-6.446 16.092.173 3.417.39 4.326 1.774 7.094 2.033 4.196 5.104 7.267 9.3 9.344 2.898 1.427 3.634 1.6 7.397 1.73 3.418.13 4.629 0 6.921-.779 9.387-3.157 15.054-12.285 13.453-21.628C69.894 48.578 59.34 41.137 48.44 43.3z"/><path d="M44.719.692C23.912 4.412 7.17 19.812 1.894 40.056-.009 47.366-.139 51.65.077 108.36c.13 52.081.173 53.293 1.039 57.316 4.801 21.671 20.2 37.114 42.089 42.218 2.855.65 6.488.78 29.89.909 24.224.173 26.733.13 27.382-.52.649-.648.692-8.997.692-103.643 0-70.163-.13-103.211-.432-103.817C100.304.043 99.569 0 74.22.043c-20.59.044-26.776.173-29.501.65zM83.866 104.51v87.639l-17.605-.216c-16.222-.173-17.952-.26-21.196-1.082-13.93-3.59-24.268-14.318-27.166-28.29-.951-4.369-.951-111.992-.043-116.275 2.595-12.155 11.03-22.234 22.407-26.776 5.71-2.293 8.349-2.552 26.863-2.595l16.74-.044v87.64zM122.235.303c-.173.13-.303 47.02-.303 104.206 0 94.344.044 103.904.693 104.163 1.168.433 34.735.26 38.888-.173 17.562-1.99 33.048-12.674 41.483-28.55 1.082-2.033 2.51-5.45 3.245-7.57 2.725-8.132 2.638-5.969 2.638-68.13 0-49.615-.086-57.012-.692-60.17-4.282-22.537-21.455-39.537-44.036-43.43-3.028-.52-7.7-.649-22.753-.649-10.382 0-19.033.13-19.163.303zm46.199 94.214c6.748 1.773 12.285 6.92 14.534 13.496 1.428 4.066 1.384 10.036-.043 13.756-2.639 6.834-7.83 11.636-14.491 13.41-10.814 2.811-22.32-3.72-25.479-14.449-.951-3.287-.908-8.824.173-12.198 3.245-10.598 14.492-16.827 25.306-14.015z"/></g><g><path d="M939.3 1.222c-15.5 5.1-24.7 20-22.1 36.2 1.6 10.4 7.6 18.6 16.8 23.3 12.5 6.2 25.8 4.6 35.8-4.4 7.5-6.8 10.7-13.9 10.7-24 0-9.5-2.8-16.6-9.1-22.9-7.9-7.9-22.1-11.5-32.1-8.2zm17.7 14.6c6 3.1 9.3 8.1 9.8 14.9.6 8.9-3.2 15.3-11.1 18.6-13.4 5.6-28.6-7.3-24.8-21.2 1.6-6.2 4.3-9.7 9.3-12.2 5.4-2.6 11.7-2.7 16.8-.1zM269 32.322v30.6l6.3-.3 6.2-.3.5-19.3.5-19.3 14.5 19.5 14.5 19.6 6-.2 6-.3v-60l-6.2-.3-6.3-.3v39.5l-14.7-19.7-14.8-19.7H269v30.5zM369 32.322v30.5h13v-61h-13v30.5zM427.5 3.122c-.3.7-.4 14.3-.3 30.2l.3 29 6.3.3 6.2.3v-40.5l15 20.2 15 20.2h12v-61h-13l-.2 19.2-.3 19.2-14.4-19.2-14.3-19.2h-5.9c-3.9 0-6.1.4-6.4 1.3zM524.7 2.522c-.4.3-.7 3.3-.7 6.5v5.8h20v48h13v-48h19v-13h-25.3c-14 0-25.7.3-26 .7zM620 32.322v30.5h47v-12h-35v-14h32v-11h-32v-12l17.3-.2 17.2-.3.3-5.8.3-5.7H620v30.5zM716.5 3.122c-.3.7-.4 14.3-.3 30.2l.3 29 6.3.3 6.2.3v-40.5l15 20.2 15 20.2h12v-61h-13l-.2 19.2-.3 19.2-14.4-19.2-14.3-19.2h-5.9c-3.9 0-6.1.4-6.4 1.3zM822 32.222v30.6h13.3c15.4 0 22.7-1.5 29.3-6.1 19.5-13.4 16.5-42.1-5.4-52.2-4.1-1.9-6.9-2.2-20.9-2.5l-16.3-.4v30.6zm32.7-15.5c8.4 3.9 12 14.6 7.8 23.5-3.2 6.6-9.7 9.6-21.1 9.6H834v-35h8.3c5.9 0 9.4.6 12.4 1.9zM791.8 89.922c-13.9 1.8-26.3 8.3-36.5 19.2-22.3 24-21.6 60.5 1.7 83.7 8.6 8.7 16.4 13.2 27.6 16 18.4 4.7 37 1 52.2-10.5 5.9-4.4 13.6-13 13-14.5-.2-.4-4.3-4.1-9.2-8.4l-8.8-7.7-2.7 3.5c-12.9 16.9-39 18.7-54.1 3.6-2.2-2.2-5.2-6.3-6.7-9.2-2.5-4.8-2.8-6.3-2.8-15.3 0-8.6.3-10.7 2.5-15 7.4-15.3 25.7-23.6 41.6-19 7.4 2.1 14.4 6.5 18.8 11.8l3.4 4.1 4.4-3.6c2.4-1.9 6.6-5.6 9.3-8l5-4.5-3.9-4.8c-13-15.8-34-24-54.8-21.4zM297.2 93.822c-23.8 6.3-36.1 22.2-30.8 40.2 3.8 13.3 16.4 19.8 49.9 25.8 22.5 4 29.1 7.3 29.1 14.4 0 4.9-2.9 8.5-9.2 11.4-5.4 2.5-6.6 2.7-20.2 2.7-16.1 0-22.4-1.3-34.3-6.7-3.7-1.7-6.9-2.9-7.1-2.7-1.2 1.5-10.7 19.2-10.4 19.4 1 1.1 17 6.9 23.6 8.7 11 2.9 34.5 3.6 46.5 1.4 22.4-4.2 33.5-14.5 34.5-31.8.8-14.3-3.2-21.7-15.5-28.1-8.8-4.6-16.4-6.8-35.8-10.7-16.9-3.3-21.7-4.9-25.2-8.2-3.1-2.9-3.1-8.1.1-11.3 7.2-7.2 33-7.5 53-.5 3.3 1.1 6.3 1.7 6.7 1.3.7-.8 7.9-17.7 7.9-18.7 0-.9-15.3-5.4-23.9-7-11.6-2.2-29.6-2-38.9.4zM382.4 94.522c.3 1 7.3 25.9 15.6 55.3s15.3 54.3 15.6 55.2c.5 1.6 2.1 1.8 14.4 1.8h13.9l1.1-3.8c9.9-35.8 19.9-69.4 20.4-68.2.3.8 5 17.2 10.4 36.5l9.8 35 14 .3 14 .3 15.9-55.8c8.7-30.7 16-56.4 16.3-57.1.3-.9-2.5-1.2-12.2-1.2h-12.5l-1.4 4.7c-.8 2.7-5.6 20.7-10.7 40-5.2 19.4-9.6 35.3-10 35.3-.3 0-5-15.2-10.4-33.8-5.4-18.5-10.7-36.5-11.8-40l-1.9-6.3-10.2.3-10.2.3-11.7 40c-6.4 22-11.7 40.2-11.8 40.5-.1.3-4.6-15.9-9.9-36-5.4-20.1-10.4-38.4-11-40.8l-1.2-4.2h-12.5c-11.5 0-12.5.1-12 1.7zM572 149.822v57h26l-.2-56.8-.3-56.7-12.7-.3-12.8-.3v57.1zM625 105.322v12.5h36v89h25v-89l17.8-.2 17.7-.3v-24l-48.2-.3-48.3-.2v12.5zM876 149.822v57h24v-45h53v45h24l-.2-56.8-.3-56.7-11.7-.3-11.8-.3v45.1h-53v-45h-24v57z"/></g></g></svg>